<svg width="24" height="24" viewBox="0 0 24 24" fill="none" xmlns="http://www.w3.org/2000/svg">
<g id="Iconsax/Bulk/location">
<path id="Vector" opacity="0.4" d="M20.6211 8.45C19.5711 3.83 15.5411 1.75 12.0011 1.75H11.9911C8.46107 1.75 4.42107 3.82 3.37107 8.44C2.20107 13.6 5.36107 17.97 8.22107 20.72C9.23479 21.7012 10.5903 22.2498 12.0011 22.25C13.3611 22.25 14.7211 21.74 15.7711 20.72C18.6311 17.97 21.7911 13.61 20.6211 8.45Z" fill="white"/>
<path id="Vector_2" d="M12.0021 13.4599C12.4157 13.4599 12.8253 13.3784 13.2075 13.2201C13.5897 13.0618 13.9369 12.8298 14.2294 12.5373C14.5219 12.2448 14.754 11.8975 14.9123 11.5154C15.0706 11.1332 15.1521 10.7236 15.1521 10.3099C15.1521 9.89625 15.0706 9.48664 14.9123 9.10446C14.754 8.72228 14.5219 8.37503 14.2294 8.08253C13.9369 7.79002 13.5897 7.55799 13.2075 7.39969C12.8253 7.24139 12.4157 7.15991 12.0021 7.15991C11.1666 7.15991 10.3654 7.49179 9.77466 8.08253C9.18392 8.67327 8.85205 9.47448 8.85205 10.3099C8.85205 11.1453 9.18392 11.9466 9.77466 12.5373C10.3654 13.128 11.1666 13.4599 12.0021 13.4599Z" fill="white"/>
</g>
</svg>
